G04 EAGLE Gerber RS-274X export*
G75*
%MOMM*%
%FSLAX34Y34*%
%LPD*%
%IN*%
%IPPOS*%
%AMOC8*
5,1,8,0,0,1.08239X$1,22.5*%
G01*
G04 Define Apertures*
%ADD10C,0.254000*%
D10*
X500Y69000D02*
X766Y62899D01*
X1563Y56845D01*
X2885Y50883D01*
X4722Y45059D01*
X7058Y39417D01*
X9878Y34000D01*
X13159Y28850D01*
X16877Y24005D01*
X21003Y19503D01*
X25505Y15377D01*
X30350Y11659D01*
X35500Y8378D01*
X40917Y5558D01*
X46559Y3222D01*
X52383Y1385D01*
X58345Y63D01*
X64399Y-734D01*
X70500Y-1000D01*
X96500Y-1000D01*
X96500Y17000D01*
X144500Y17000D01*
X144500Y-1000D01*
X206500Y-1000D01*
X206500Y17000D01*
X254500Y17000D01*
X254500Y-1000D01*
X316500Y-1000D01*
X316500Y17000D01*
X364500Y17000D01*
X364500Y-1000D01*
X390500Y-1000D01*
X396601Y-734D01*
X402655Y63D01*
X408617Y1385D01*
X414441Y3222D01*
X420083Y5558D01*
X425500Y8378D01*
X430650Y11659D01*
X435495Y15377D01*
X439997Y19503D01*
X444123Y24005D01*
X447841Y28850D01*
X451122Y34000D01*
X453942Y39417D01*
X456278Y45059D01*
X458115Y50883D01*
X459437Y56845D01*
X460234Y62899D01*
X460500Y69000D01*
X460500Y279000D01*
X460234Y285101D01*
X459437Y291155D01*
X458115Y297117D01*
X456278Y302941D01*
X453942Y308583D01*
X451122Y314000D01*
X447841Y319150D01*
X444123Y323995D01*
X439997Y328497D01*
X435495Y332623D01*
X430650Y336341D01*
X425500Y339622D01*
X420083Y342442D01*
X414441Y344778D01*
X408617Y346615D01*
X402655Y347937D01*
X396601Y348734D01*
X390500Y349000D01*
X70500Y349000D01*
X64399Y348734D01*
X58345Y347937D01*
X52383Y346615D01*
X46559Y344778D01*
X40917Y342442D01*
X35500Y339622D01*
X30350Y336341D01*
X25505Y332623D01*
X21003Y328497D01*
X16877Y323995D01*
X13159Y319150D01*
X9878Y314000D01*
X7058Y308583D01*
X4722Y302941D01*
X2885Y297117D01*
X1563Y291155D01*
X766Y285101D01*
X500Y279000D01*
X500Y243000D01*
X70500Y243000D01*
X70500Y105000D01*
X500Y105000D01*
X500Y69000D01*
X183550Y286000D02*
X183562Y285717D01*
X183599Y285436D01*
X183661Y285159D01*
X183746Y284888D01*
X183855Y284627D01*
X183985Y284375D01*
X184138Y284136D01*
X184310Y283911D01*
X184502Y283702D01*
X184711Y283510D01*
X184936Y283338D01*
X185175Y283185D01*
X185427Y283055D01*
X185688Y282946D01*
X185959Y282861D01*
X186236Y282799D01*
X186517Y282762D01*
X186800Y282750D01*
X187083Y282762D01*
X187364Y282799D01*
X187641Y282861D01*
X187912Y282946D01*
X188174Y283055D01*
X188425Y283185D01*
X188664Y283338D01*
X188889Y283510D01*
X189098Y283702D01*
X189290Y283911D01*
X189462Y284136D01*
X189615Y284375D01*
X189746Y284627D01*
X189854Y284888D01*
X189939Y285159D01*
X190001Y285436D01*
X190038Y285717D01*
X190050Y286000D01*
X190050Y297000D01*
X190038Y297283D01*
X190001Y297564D01*
X189939Y297841D01*
X189854Y298112D01*
X189746Y298374D01*
X189615Y298625D01*
X189462Y298864D01*
X189290Y299089D01*
X189098Y299298D01*
X188889Y299490D01*
X188664Y299662D01*
X188425Y299815D01*
X188174Y299946D01*
X187912Y300054D01*
X187641Y300139D01*
X187364Y300201D01*
X187083Y300238D01*
X186800Y300250D01*
X186517Y300238D01*
X186236Y300201D01*
X185959Y300139D01*
X185688Y300054D01*
X185427Y299946D01*
X185175Y299815D01*
X184936Y299662D01*
X184711Y299490D01*
X184502Y299298D01*
X184310Y299089D01*
X184138Y298864D01*
X183985Y298625D01*
X183855Y298374D01*
X183746Y298112D01*
X183661Y297841D01*
X183599Y297564D01*
X183562Y297283D01*
X183550Y297000D01*
X183550Y286000D01*
X269950Y286000D02*
X269962Y285717D01*
X269999Y285436D01*
X270061Y285159D01*
X270146Y284888D01*
X270255Y284627D01*
X270385Y284375D01*
X270538Y284136D01*
X270710Y283911D01*
X270902Y283702D01*
X271111Y283510D01*
X271336Y283338D01*
X271575Y283185D01*
X271827Y283055D01*
X272088Y282946D01*
X272359Y282861D01*
X272636Y282799D01*
X272917Y282762D01*
X273200Y282750D01*
X273483Y282762D01*
X273764Y282799D01*
X274041Y282861D01*
X274312Y282946D01*
X274574Y283055D01*
X274825Y283185D01*
X275064Y283338D01*
X275289Y283510D01*
X275498Y283702D01*
X275690Y283911D01*
X275862Y284136D01*
X276015Y284375D01*
X276146Y284627D01*
X276254Y284888D01*
X276339Y285159D01*
X276401Y285436D01*
X276438Y285717D01*
X276450Y286000D01*
X276450Y297000D01*
X276438Y297283D01*
X276401Y297564D01*
X276339Y297841D01*
X276254Y298112D01*
X276146Y298374D01*
X276015Y298625D01*
X275862Y298864D01*
X275690Y299089D01*
X275498Y299298D01*
X275289Y299490D01*
X275064Y299662D01*
X274825Y299815D01*
X274574Y299946D01*
X274312Y300054D01*
X274041Y300139D01*
X273764Y300201D01*
X273483Y300238D01*
X273200Y300250D01*
X272917Y300238D01*
X272636Y300201D01*
X272359Y300139D01*
X272088Y300054D01*
X271827Y299946D01*
X271575Y299815D01*
X271336Y299662D01*
X271111Y299490D01*
X270902Y299298D01*
X270710Y299089D01*
X270538Y298864D01*
X270385Y298625D01*
X270255Y298374D01*
X270146Y298112D01*
X270061Y297841D01*
X269999Y297564D01*
X269962Y297283D01*
X269950Y297000D01*
X269950Y286000D01*
X183550Y329000D02*
X183562Y328717D01*
X183599Y328436D01*
X183661Y328159D01*
X183746Y327888D01*
X183855Y327627D01*
X183985Y327375D01*
X184138Y327136D01*
X184310Y326911D01*
X184502Y326702D01*
X184711Y326510D01*
X184936Y326338D01*
X185175Y326185D01*
X185427Y326055D01*
X185688Y325946D01*
X185959Y325861D01*
X186236Y325799D01*
X186517Y325762D01*
X186800Y325750D01*
X187083Y325762D01*
X187364Y325799D01*
X187641Y325861D01*
X187912Y325946D01*
X188174Y326055D01*
X188425Y326185D01*
X188664Y326338D01*
X188889Y326510D01*
X189098Y326702D01*
X189290Y326911D01*
X189462Y327136D01*
X189615Y327375D01*
X189746Y327627D01*
X189854Y327888D01*
X189939Y328159D01*
X190001Y328436D01*
X190038Y328717D01*
X190050Y329000D01*
X190050Y337000D01*
X190038Y337283D01*
X190001Y337564D01*
X189939Y337841D01*
X189854Y338112D01*
X189746Y338374D01*
X189615Y338625D01*
X189462Y338864D01*
X189290Y339089D01*
X189098Y339298D01*
X188889Y339490D01*
X188664Y339662D01*
X188425Y339815D01*
X188174Y339946D01*
X187912Y340054D01*
X187641Y340139D01*
X187364Y340201D01*
X187083Y340238D01*
X186800Y340250D01*
X186517Y340238D01*
X186236Y340201D01*
X185959Y340139D01*
X185688Y340054D01*
X185427Y339946D01*
X185175Y339815D01*
X184936Y339662D01*
X184711Y339490D01*
X184502Y339298D01*
X184310Y339089D01*
X184138Y338864D01*
X183985Y338625D01*
X183855Y338374D01*
X183746Y338112D01*
X183661Y337841D01*
X183599Y337564D01*
X183562Y337283D01*
X183550Y337000D01*
X183550Y329000D01*
X269950Y329000D02*
X269962Y328717D01*
X269999Y328436D01*
X270061Y328159D01*
X270146Y327888D01*
X270255Y327627D01*
X270385Y327375D01*
X270538Y327136D01*
X270710Y326911D01*
X270902Y326702D01*
X271111Y326510D01*
X271336Y326338D01*
X271575Y326185D01*
X271827Y326055D01*
X272088Y325946D01*
X272359Y325861D01*
X272636Y325799D01*
X272917Y325762D01*
X273200Y325750D01*
X273483Y325762D01*
X273764Y325799D01*
X274041Y325861D01*
X274312Y325946D01*
X274574Y326055D01*
X274825Y326185D01*
X275064Y326338D01*
X275289Y326510D01*
X275498Y326702D01*
X275690Y326911D01*
X275862Y327136D01*
X276015Y327375D01*
X276146Y327627D01*
X276254Y327888D01*
X276339Y328159D01*
X276401Y328436D01*
X276438Y328717D01*
X276450Y329000D01*
X276450Y337000D01*
X276438Y337283D01*
X276401Y337564D01*
X276339Y337841D01*
X276254Y338112D01*
X276146Y338374D01*
X276015Y338625D01*
X275862Y338864D01*
X275690Y339089D01*
X275498Y339298D01*
X275289Y339490D01*
X275064Y339662D01*
X274825Y339815D01*
X274574Y339946D01*
X274312Y340054D01*
X274041Y340139D01*
X273764Y340201D01*
X273483Y340238D01*
X273200Y340250D01*
X272917Y340238D01*
X272636Y340201D01*
X272359Y340139D01*
X272088Y340054D01*
X271827Y339946D01*
X271575Y339815D01*
X271336Y339662D01*
X271111Y339490D01*
X270902Y339298D01*
X270710Y339089D01*
X270538Y338864D01*
X270385Y338625D01*
X270255Y338374D01*
X270146Y338112D01*
X270061Y337841D01*
X269999Y337564D01*
X269962Y337283D01*
X269950Y337000D01*
X269950Y329000D01*
M02*
