G04 EAGLE Gerber RS-274X export*
G75*
%MOMM*%
%FSLAX34Y34*%
%LPD*%
%INSoldermask Bottom*%
%IPPOS*%
%AMOC8*
5,1,8,0,0,1.08239X$1,22.5*%
G01*
G04 Define Apertures*
%ADD10C,2.654200*%
%ADD11C,1.270200*%
%ADD12R,1.270000X1.270000*%
%ADD13C,0.903200*%
%ADD14C,1.373200*%
%ADD15C,0.655600*%
G36*
X185571Y303179D02*
X186800Y303300D01*
X188029Y303179D01*
X189211Y302821D01*
X190300Y302238D01*
X191255Y301455D01*
X192038Y300500D01*
X192621Y299411D01*
X192979Y298229D01*
X193100Y297002D01*
X193100Y285998D01*
X192979Y284771D01*
X192621Y283589D01*
X192038Y282500D01*
X191255Y281545D01*
X190300Y280762D01*
X189211Y280179D01*
X188029Y279821D01*
X186800Y279700D01*
X185571Y279821D01*
X184389Y280179D01*
X183300Y280762D01*
X182345Y281545D01*
X181562Y282500D01*
X180979Y283589D01*
X180621Y284771D01*
X180500Y285998D01*
X180500Y297002D01*
X180621Y298229D01*
X180979Y299411D01*
X181562Y300500D01*
X182345Y301455D01*
X183300Y302238D01*
X184389Y302821D01*
X185571Y303179D01*
G37*
G36*
X271971Y303179D02*
X273200Y303300D01*
X274429Y303179D01*
X275611Y302821D01*
X276700Y302238D01*
X277655Y301455D01*
X278438Y300500D01*
X279021Y299411D01*
X279379Y298229D01*
X279500Y297002D01*
X279500Y285998D01*
X279379Y284771D01*
X279021Y283589D01*
X278438Y282500D01*
X277655Y281545D01*
X276700Y280762D01*
X275611Y280179D01*
X274429Y279821D01*
X273200Y279700D01*
X271971Y279821D01*
X270789Y280179D01*
X269700Y280762D01*
X268745Y281545D01*
X267962Y282500D01*
X267379Y283589D01*
X267021Y284771D01*
X266900Y285998D01*
X266900Y297002D01*
X267021Y298229D01*
X267379Y299411D01*
X267962Y300500D01*
X268745Y301455D01*
X269700Y302238D01*
X270789Y302821D01*
X271971Y303179D01*
G37*
G36*
X185571Y343179D02*
X186800Y343300D01*
X188029Y343179D01*
X189211Y342821D01*
X190300Y342238D01*
X191255Y341455D01*
X192038Y340500D01*
X192621Y339411D01*
X192979Y338229D01*
X193100Y337002D01*
X193100Y328998D01*
X192979Y327771D01*
X192621Y326589D01*
X192038Y325500D01*
X191255Y324545D01*
X190300Y323762D01*
X189211Y323179D01*
X188029Y322821D01*
X186800Y322700D01*
X185571Y322821D01*
X184389Y323179D01*
X183300Y323762D01*
X182345Y324545D01*
X181562Y325500D01*
X180979Y326589D01*
X180621Y327771D01*
X180500Y328998D01*
X180500Y337002D01*
X180621Y338229D01*
X180979Y339411D01*
X181562Y340500D01*
X182345Y341455D01*
X183300Y342238D01*
X184389Y342821D01*
X185571Y343179D01*
G37*
G36*
X271971Y343179D02*
X273200Y343300D01*
X274429Y343179D01*
X275611Y342821D01*
X276700Y342238D01*
X277655Y341455D01*
X278438Y340500D01*
X279021Y339411D01*
X279379Y338229D01*
X279500Y337002D01*
X279500Y328998D01*
X279379Y327771D01*
X279021Y326589D01*
X278438Y325500D01*
X277655Y324545D01*
X276700Y323762D01*
X275611Y323179D01*
X274429Y322821D01*
X273200Y322700D01*
X271971Y322821D01*
X270789Y323179D01*
X269700Y323762D01*
X268745Y324545D01*
X267962Y325500D01*
X267379Y326589D01*
X267021Y327771D01*
X266900Y328998D01*
X266900Y337002D01*
X267021Y338229D01*
X267379Y339411D01*
X267962Y340500D01*
X268745Y341455D01*
X269700Y342238D01*
X270789Y342821D01*
X271971Y343179D01*
G37*
D10*
X389770Y61600D03*
D11*
X389770Y87000D03*
D10*
X389770Y112400D03*
X421520Y61600D03*
X421520Y112400D03*
D11*
X440570Y76840D03*
X440570Y97160D03*
D12*
X358478Y26190D03*
X321522Y26190D03*
X248478Y26190D03*
X211522Y26190D03*
X138478Y26190D03*
X101522Y26190D03*
D13*
X258900Y296500D03*
X201100Y296500D03*
D14*
X273200Y333000D03*
X186800Y333000D03*
X273200Y291500D03*
X186800Y291500D03*
D15*
X337185Y177800D03*
X421640Y88900D03*
X304165Y93345D03*
X262890Y147955D03*
X350520Y163195D03*
X264795Y115570D03*
X235585Y321310D03*
X281305Y109220D03*
X255270Y304800D03*
X297815Y126365D03*
X113665Y187960D03*
X189230Y251460D03*
X210820Y262890D03*
X252095Y120015D03*
X244475Y295275D03*
X179070Y265430D03*
X177165Y279400D03*
X270510Y196215D03*
X256540Y191135D03*
X241935Y148590D03*
X240030Y168910D03*
X323215Y74295D03*
X321310Y100965D03*
X238760Y124460D03*
X201930Y92075D03*
X328930Y168910D03*
X344170Y168910D03*
X360045Y181610D03*
X391160Y186690D03*
X422910Y186690D03*
X333375Y196850D03*
X341630Y186690D03*
X294005Y211455D03*
X267970Y222885D03*
X279400Y195580D03*
X287655Y232410D03*
X332740Y186055D03*
X306070Y209550D03*
X161925Y179070D03*
X152400Y241300D03*
X64150Y289020D03*
X172720Y204470D03*
X151130Y226060D03*
X321310Y271145D03*
X212725Y207645D03*
X295910Y114300D03*
X113665Y178435D03*
X305435Y200660D03*
X126365Y183515D03*
X199390Y120650D03*
X203200Y176530D03*
X97790Y310515D03*
X184785Y259080D03*
X216535Y228600D03*
X233680Y153035D03*
X130175Y301625D03*
X299085Y257175D03*
X338455Y146050D03*
X116840Y74295D03*
X285750Y135255D03*
X228600Y62865D03*
M02*
