G04 EAGLE Gerber RS-274X export*
G75*
%MOMM*%
%FSLAX34Y34*%
%LPD*%
%INSoldermask Top*%
%IPPOS*%
%AMOC8*
5,1,8,0,0,1.08239X$1,22.5*%
G01*
G04 Define Apertures*
%ADD10C,0.403200*%
%ADD11R,5.053200X5.053200*%
%ADD12C,0.986200*%
%ADD13C,2.654200*%
%ADD14C,1.270200*%
%ADD15R,0.553200X0.503200*%
%ADD16R,0.503200X0.553200*%
%ADD17R,0.453200X0.553200*%
%ADD18C,0.419200*%
%ADD19R,0.553200X0.453200*%
%ADD20C,2.203200*%
%ADD21R,2.003200X1.203200*%
%ADD22R,2.403200X1.403200*%
%ADD23R,1.353200X2.003200*%
%ADD24R,1.053200X1.153200*%
%ADD25R,0.803200X0.703200*%
%ADD26R,0.703200X0.803200*%
%ADD27R,1.103200X5.503200*%
%ADD28R,1.103200X0.903200*%
%ADD29R,1.003200X1.353200*%
%ADD30R,1.253200X0.703200*%
%ADD31R,0.152400X1.828800*%
%ADD32R,1.371600X1.803400*%
%ADD33R,1.103200X1.003200*%
%ADD34R,0.903200X0.503200*%
%ADD35R,1.203200X0.503200*%
%ADD36R,0.803200X0.803200*%
%ADD37C,0.269722*%
%ADD38R,1.103200X1.503200*%
%ADD39C,0.453200*%
%ADD40R,0.914400X1.295400*%
%ADD41R,1.270000X1.270000*%
%ADD42R,1.600200X1.295400*%
%ADD43R,0.603200X0.653200*%
%ADD44R,0.653200X0.603200*%
%ADD45R,0.503200X1.353200*%
%ADD46C,0.903200*%
%ADD47R,0.803200X1.353200*%
%ADD48C,1.373200*%
%ADD49R,1.403200X0.803200*%
%ADD50C,0.655600*%
G36*
X185571Y303179D02*
X186800Y303300D01*
X188029Y303179D01*
X189211Y302821D01*
X190300Y302238D01*
X191255Y301455D01*
X192038Y300500D01*
X192621Y299411D01*
X192979Y298229D01*
X193100Y297002D01*
X193100Y285998D01*
X192979Y284771D01*
X192621Y283589D01*
X192038Y282500D01*
X191255Y281545D01*
X190300Y280762D01*
X189211Y280179D01*
X188029Y279821D01*
X186800Y279700D01*
X185571Y279821D01*
X184389Y280179D01*
X183300Y280762D01*
X182345Y281545D01*
X181562Y282500D01*
X180979Y283589D01*
X180621Y284771D01*
X180500Y285998D01*
X180500Y297002D01*
X180621Y298229D01*
X180979Y299411D01*
X181562Y300500D01*
X182345Y301455D01*
X183300Y302238D01*
X184389Y302821D01*
X185571Y303179D01*
G37*
G36*
X271971Y303179D02*
X273200Y303300D01*
X274429Y303179D01*
X275611Y302821D01*
X276700Y302238D01*
X277655Y301455D01*
X278438Y300500D01*
X279021Y299411D01*
X279379Y298229D01*
X279500Y297002D01*
X279500Y285998D01*
X279379Y284771D01*
X279021Y283589D01*
X278438Y282500D01*
X277655Y281545D01*
X276700Y280762D01*
X275611Y280179D01*
X274429Y279821D01*
X273200Y279700D01*
X271971Y279821D01*
X270789Y280179D01*
X269700Y280762D01*
X268745Y281545D01*
X267962Y282500D01*
X267379Y283589D01*
X267021Y284771D01*
X266900Y285998D01*
X266900Y297002D01*
X267021Y298229D01*
X267379Y299411D01*
X267962Y300500D01*
X268745Y301455D01*
X269700Y302238D01*
X270789Y302821D01*
X271971Y303179D01*
G37*
G36*
X185571Y343179D02*
X186800Y343300D01*
X188029Y343179D01*
X189211Y342821D01*
X190300Y342238D01*
X191255Y341455D01*
X192038Y340500D01*
X192621Y339411D01*
X192979Y338229D01*
X193100Y337002D01*
X193100Y328998D01*
X192979Y327771D01*
X192621Y326589D01*
X192038Y325500D01*
X191255Y324545D01*
X190300Y323762D01*
X189211Y323179D01*
X188029Y322821D01*
X186800Y322700D01*
X185571Y322821D01*
X184389Y323179D01*
X183300Y323762D01*
X182345Y324545D01*
X181562Y325500D01*
X180979Y326589D01*
X180621Y327771D01*
X180500Y328998D01*
X180500Y337002D01*
X180621Y338229D01*
X180979Y339411D01*
X181562Y340500D01*
X182345Y341455D01*
X183300Y342238D01*
X184389Y342821D01*
X185571Y343179D01*
G37*
G36*
X271971Y343179D02*
X273200Y343300D01*
X274429Y343179D01*
X275611Y342821D01*
X276700Y342238D01*
X277655Y341455D01*
X278438Y340500D01*
X279021Y339411D01*
X279379Y338229D01*
X279500Y337002D01*
X279500Y328998D01*
X279379Y327771D01*
X279021Y326589D01*
X278438Y325500D01*
X277655Y324545D01*
X276700Y323762D01*
X275611Y323179D01*
X274429Y322821D01*
X273200Y322700D01*
X271971Y322821D01*
X270789Y323179D01*
X269700Y323762D01*
X268745Y324545D01*
X267962Y325500D01*
X267379Y326589D01*
X267021Y327771D01*
X266900Y328998D01*
X266900Y337002D01*
X267021Y338229D01*
X267379Y339411D01*
X267962Y340500D01*
X268745Y341455D01*
X269700Y342238D01*
X270789Y342821D01*
X271971Y343179D01*
G37*
G36*
X96823Y16538D02*
X96823Y23396D01*
X108507Y23396D01*
X108507Y16538D01*
X96823Y16538D01*
G37*
G36*
X131493Y16538D02*
X131493Y23396D01*
X143177Y23396D01*
X143177Y16538D01*
X131493Y16538D01*
G37*
G36*
X206823Y16538D02*
X206823Y23396D01*
X218507Y23396D01*
X218507Y16538D01*
X206823Y16538D01*
G37*
G36*
X241493Y16538D02*
X241493Y23396D01*
X253177Y23396D01*
X253177Y16538D01*
X241493Y16538D01*
G37*
G36*
X316823Y16538D02*
X316823Y23396D01*
X328507Y23396D01*
X328507Y16538D01*
X316823Y16538D01*
G37*
G36*
X351493Y16538D02*
X351493Y23396D01*
X363177Y23396D01*
X363177Y16538D01*
X351493Y16538D01*
G37*
D10*
X174000Y257000D03*
X170000Y257000D03*
X174000Y261000D03*
X170000Y261000D03*
X174000Y265000D03*
X170000Y265000D03*
X174000Y269000D03*
X170000Y269000D03*
D11*
X301000Y163500D03*
D10*
X273500Y163500D03*
X273500Y168500D03*
X273500Y173500D03*
X273500Y178500D03*
X273500Y183500D03*
X268500Y186000D03*
X268500Y176000D03*
X268500Y171000D03*
X268500Y166000D03*
X268500Y161000D03*
X273500Y158500D03*
X273500Y153500D03*
X268500Y156000D03*
X268500Y151000D03*
X268500Y146000D03*
X273500Y143500D03*
X273500Y138500D03*
X273500Y131000D03*
X278500Y131000D03*
X281000Y136000D03*
X283500Y131000D03*
X288500Y131000D03*
X293500Y131000D03*
X298500Y131000D03*
X303500Y131000D03*
X308500Y131000D03*
X313500Y131000D03*
X318500Y131000D03*
X323500Y131000D03*
X328500Y131000D03*
X321000Y136000D03*
X316000Y136000D03*
X311000Y136000D03*
X306000Y136000D03*
X301000Y136000D03*
X296000Y136000D03*
X291000Y136000D03*
X328500Y143500D03*
X333500Y141000D03*
X333500Y136000D03*
X333500Y146000D03*
X328500Y148500D03*
X333500Y151000D03*
X328500Y153500D03*
X328500Y158500D03*
X333500Y156000D03*
X333500Y161000D03*
X333500Y166000D03*
X333500Y171000D03*
X328500Y173500D03*
X328500Y178500D03*
X333500Y181000D03*
X328500Y183500D03*
X333500Y191000D03*
X268500Y191000D03*
X281000Y191000D03*
X286000Y191000D03*
X291000Y191000D03*
X293500Y196000D03*
X296000Y191000D03*
X298500Y196000D03*
X301000Y191000D03*
X303500Y196000D03*
X306000Y191000D03*
X308500Y196000D03*
X311000Y191000D03*
X313500Y196000D03*
X316000Y191000D03*
X318500Y196000D03*
X323500Y196000D03*
X328500Y196000D03*
X276000Y191000D03*
X288500Y196000D03*
D12*
X402470Y80650D03*
X402470Y93350D03*
X415170Y80650D03*
X415170Y93350D03*
X427880Y80650D03*
X427880Y93350D03*
D13*
X389770Y61600D03*
D14*
X389770Y87000D03*
D13*
X389770Y112400D03*
X421520Y61600D03*
X421520Y112400D03*
D14*
X440570Y76840D03*
X440570Y97160D03*
D15*
X205250Y111000D03*
X205250Y116000D03*
X205250Y121000D03*
X205250Y126000D03*
D16*
X200000Y126250D03*
X195000Y126250D03*
D15*
X189750Y126000D03*
X189750Y121000D03*
X189750Y116000D03*
X189750Y111000D03*
D16*
X195000Y110750D03*
X200000Y110750D03*
D17*
X166250Y280000D03*
X171750Y280000D03*
D18*
X222000Y246500D03*
X226000Y246500D03*
X230000Y246500D03*
X222000Y242500D03*
X226000Y242500D03*
X230000Y242500D03*
X222000Y238500D03*
X226000Y238500D03*
X230000Y238500D03*
X222000Y234500D03*
X226000Y234500D03*
X230000Y234500D03*
X222000Y230500D03*
X226000Y230500D03*
X230000Y230500D03*
D19*
X212500Y241750D03*
X212500Y236250D03*
X217000Y223750D03*
X217000Y218250D03*
X208500Y151750D03*
X208500Y146250D03*
X191000Y157750D03*
X191000Y152250D03*
D20*
X189500Y175000D03*
X247000Y239500D03*
X213000Y167000D03*
X318500Y257000D03*
D17*
X220750Y107500D03*
X215250Y107500D03*
D20*
X289000Y62500D03*
X235000Y214000D03*
X290000Y93500D03*
X371000Y146500D03*
X349500Y131000D03*
X333500Y107500D03*
D21*
X253000Y182000D03*
X253000Y157000D03*
D22*
X273000Y264280D03*
X273000Y243720D03*
D23*
X413000Y181000D03*
X443000Y181000D03*
D24*
X341250Y225250D03*
X341250Y210750D03*
X352750Y210750D03*
X352750Y225250D03*
D25*
X276000Y202000D03*
X276000Y212000D03*
D26*
X271000Y230000D03*
X281000Y230000D03*
X372000Y186000D03*
X382000Y186000D03*
D27*
X42140Y305500D03*
X87860Y305500D03*
D28*
X144000Y248500D03*
X144000Y261500D03*
D29*
X159000Y188500D03*
X159000Y223500D03*
X176000Y192500D03*
X176000Y157500D03*
X162000Y122500D03*
X162000Y157500D03*
D30*
X123500Y242500D03*
X123500Y229500D03*
X144500Y236000D03*
D19*
X51000Y265750D03*
X51000Y260250D03*
X64000Y261250D03*
X64000Y266750D03*
D31*
X91000Y261000D03*
D32*
X98620Y261000D03*
X83380Y261000D03*
D33*
X316000Y303500D03*
X316000Y284500D03*
X337000Y294000D03*
D34*
X106250Y230000D03*
X106250Y225000D03*
X106250Y220000D03*
X106250Y215000D03*
X106250Y210000D03*
X106250Y205000D03*
X106250Y200000D03*
X106250Y195000D03*
X106250Y190000D03*
X106250Y185000D03*
X106250Y180000D03*
X106250Y175000D03*
X106250Y170000D03*
X106250Y165000D03*
X106250Y160000D03*
X106250Y155000D03*
X106250Y150000D03*
X106250Y145000D03*
X106250Y140000D03*
X106250Y135000D03*
X106250Y130000D03*
X106250Y125000D03*
X106250Y120000D03*
X106250Y115000D03*
D35*
X79750Y237900D03*
X79750Y107100D03*
D36*
X142500Y213000D03*
X131500Y213000D03*
X142500Y200000D03*
X131500Y200000D03*
X135500Y170000D03*
X124500Y170000D03*
X135500Y157000D03*
X124500Y157000D03*
X135500Y144000D03*
X124500Y144000D03*
X135500Y131000D03*
X124500Y131000D03*
X134500Y118000D03*
X123500Y118000D03*
X134500Y105000D03*
X123500Y105000D03*
X134500Y91000D03*
X123500Y91000D03*
X108000Y95500D03*
X108000Y106500D03*
D37*
X121382Y308518D02*
X128318Y308518D01*
X128318Y306482D01*
X121382Y306482D01*
X121382Y308518D01*
X121382Y313518D02*
X128318Y313518D01*
X128318Y311482D01*
X121382Y311482D01*
X121382Y313518D01*
X121382Y318518D02*
X128318Y318518D01*
X128318Y316482D01*
X121382Y316482D01*
X121382Y318518D01*
X121382Y323518D02*
X128318Y323518D01*
X128318Y321482D01*
X121382Y321482D01*
X121382Y323518D01*
X108618Y323518D02*
X101682Y323518D01*
X108618Y323518D02*
X108618Y321482D01*
X101682Y321482D01*
X101682Y323518D01*
X101682Y318518D02*
X108618Y318518D01*
X108618Y316482D01*
X101682Y316482D01*
X101682Y318518D01*
X101682Y313518D02*
X108618Y313518D01*
X108618Y311482D01*
X101682Y311482D01*
X101682Y313518D01*
X101682Y308518D02*
X108618Y308518D01*
X108618Y306482D01*
X101682Y306482D01*
X101682Y308518D01*
D38*
X115000Y315000D03*
D36*
X137000Y293500D03*
X137000Y304500D03*
D20*
X162000Y297000D03*
X159000Y324000D03*
D39*
X217000Y98000D03*
X217000Y93000D03*
X217000Y88000D03*
X212000Y98000D03*
X212000Y93000D03*
X212000Y88000D03*
X207000Y98000D03*
X207000Y93000D03*
X207000Y88000D03*
D36*
X240500Y97000D03*
X229500Y97000D03*
D20*
X231000Y77000D03*
X206000Y71000D03*
D40*
X354002Y39715D03*
X325998Y39715D03*
D41*
X358478Y26190D03*
X321522Y26190D03*
D42*
X340000Y41239D03*
D40*
X244002Y39715D03*
X215998Y39715D03*
D41*
X248478Y26190D03*
X211522Y26190D03*
D42*
X230000Y41239D03*
D40*
X134002Y39715D03*
X105998Y39715D03*
D41*
X138478Y26190D03*
X101522Y26190D03*
D42*
X120000Y41239D03*
D19*
X323000Y58250D03*
X323000Y63750D03*
X203000Y46750D03*
X203000Y41250D03*
D17*
X115250Y69000D03*
X120750Y69000D03*
D36*
X236500Y56000D03*
X225500Y56000D03*
X112500Y57000D03*
X123500Y57000D03*
X173000Y247500D03*
X173000Y236500D03*
X160000Y261500D03*
X160000Y250500D03*
X147500Y281000D03*
X136500Y281000D03*
X205500Y257000D03*
X216500Y257000D03*
D43*
X234050Y257000D03*
X227950Y257000D03*
D36*
X201000Y232500D03*
X201000Y243500D03*
X219000Y202500D03*
X219000Y191500D03*
D43*
X250050Y196000D03*
X243950Y196000D03*
D44*
X315000Y123050D03*
X315000Y116950D03*
X303000Y122050D03*
X303000Y115950D03*
D36*
X256500Y142000D03*
X245500Y142000D03*
X257500Y128000D03*
X246500Y128000D03*
X274000Y119500D03*
X274000Y108500D03*
X288000Y205500D03*
X288000Y216500D03*
X265000Y215500D03*
X265000Y204500D03*
D43*
X229950Y159000D03*
X236050Y159000D03*
X230950Y183000D03*
X237050Y183000D03*
D44*
X300000Y211050D03*
X300000Y204950D03*
X312000Y211050D03*
X312000Y204950D03*
X324000Y211050D03*
X324000Y204950D03*
D43*
X351050Y193000D03*
X344950Y193000D03*
X353050Y181000D03*
X346950Y181000D03*
D44*
X329000Y228950D03*
X329000Y235050D03*
D43*
X361950Y198000D03*
X368050Y198000D03*
X356050Y169000D03*
X349950Y169000D03*
D44*
X386000Y167950D03*
X386000Y174050D03*
X397000Y179950D03*
X397000Y186050D03*
D43*
X352050Y157000D03*
X345950Y157000D03*
X190950Y97000D03*
X197050Y97000D03*
D36*
X206000Y209500D03*
X206000Y220500D03*
D17*
X299750Y290000D03*
X294250Y290000D03*
D19*
X39000Y262750D03*
X39000Y257250D03*
D45*
X232500Y285750D03*
X237500Y285750D03*
X242500Y285750D03*
X247500Y285750D03*
X227500Y285750D03*
X222500Y285750D03*
X217500Y285750D03*
X212500Y285750D03*
D46*
X258900Y296500D03*
X201100Y296500D03*
D47*
X262000Y285750D03*
X254000Y285750D03*
X206000Y285750D03*
X198000Y285750D03*
D48*
X273200Y333000D03*
X186800Y333000D03*
X273200Y291500D03*
X186800Y291500D03*
D17*
X228750Y272000D03*
X223250Y272000D03*
X243750Y272000D03*
X238250Y272000D03*
D49*
X220500Y324500D03*
X220500Y315000D03*
X220500Y305500D03*
X245500Y305500D03*
X245500Y315000D03*
X245500Y324500D03*
D36*
X208500Y270000D03*
X197500Y270000D03*
D43*
X195050Y85000D03*
X188950Y85000D03*
D36*
X346500Y59000D03*
X335500Y59000D03*
D44*
X254000Y273050D03*
X254000Y266950D03*
D50*
X337185Y177800D03*
X421640Y88900D03*
X304165Y93345D03*
X262890Y147955D03*
X350520Y163195D03*
X264795Y115570D03*
X235585Y321310D03*
X281305Y109220D03*
X255270Y304800D03*
X297815Y126365D03*
X113665Y187960D03*
X189230Y251460D03*
X210820Y262890D03*
X252095Y120015D03*
X244475Y295275D03*
X179070Y265430D03*
X177165Y279400D03*
X270510Y196215D03*
X256540Y191135D03*
X241935Y148590D03*
X240030Y168910D03*
X323215Y74295D03*
X321310Y100965D03*
X238760Y124460D03*
X201930Y92075D03*
X328930Y168910D03*
X344170Y168910D03*
X360045Y181610D03*
X391160Y186690D03*
X422910Y186690D03*
X333375Y196850D03*
X341630Y186690D03*
X294005Y211455D03*
X267970Y222885D03*
X279400Y195580D03*
X287655Y232410D03*
X332740Y186055D03*
X306070Y209550D03*
X161925Y179070D03*
X152400Y241300D03*
X64150Y289020D03*
X172720Y204470D03*
X151130Y226060D03*
X321310Y271145D03*
X212725Y207645D03*
X295910Y114300D03*
X113665Y178435D03*
X305435Y200660D03*
X126365Y183515D03*
X199390Y120650D03*
X203200Y176530D03*
X97790Y310515D03*
X184785Y259080D03*
X216535Y228600D03*
X233680Y153035D03*
X130175Y301625D03*
X299085Y257175D03*
X338455Y146050D03*
X116840Y74295D03*
X285750Y135255D03*
X228600Y62865D03*
M02*
