M48
;GenerationSoftware,Autodesk,EAGLE,9.7.0*%
;CreationDate,2026-04-10T20:55:25Z*%
FMAT,2
ICI,OFF
METRIC,TZ,000.000
T6C0.300
T5C0.559
T4C0.650
T3C0.700
T2C1.067
T1C2.451
%
G90
M71
T1
X38977Y6160
X38977Y11240
X42152Y6160
X42152Y11240
T2
X38977Y8700
X44057Y7684
X44057Y9716
T3
X25890Y29650
X20110Y29650
T4
X18680Y29150
X27320Y33300
X18680Y33300
X27320Y29150
T5
X35848Y2619
X32152Y2619
X24848Y2619
X21152Y2619
X13848Y2619
X10152Y2619
T6
X24193Y14859
X24003Y16891
X32321Y7429
X32131Y10097
X23876Y12446
X20193Y9208
X32893Y16891
X34417Y16891
X36005Y18161
X39116Y18669
X42291Y18669
X33338Y19685
X34163Y18669
X29400Y21146
X26797Y22288
X27940Y19558
X28765Y23241
X33274Y18606
X30607Y20955
X16192Y17907
X15240Y24130
X6415Y28902
X17272Y20447
X15113Y22606
X32131Y27114
X21273Y20765
X29591Y11430
X11366Y17844
X30543Y20066
X12636Y18352
X19939Y12065
X20320Y17653
X9779Y31051
X18479Y25908
X21654Y22860
X23368Y15303
X13017Y30162
X29908Y25717
X33846Y14605
X11684Y7429
X28575Y13525
X22860Y6286
X33719Y17780
X42164Y8890
X30416Y9335
X26289Y14795
X35052Y16319
X26479Y11557
X23558Y32131
X28130Y10922
X25527Y30480
X29500Y16950
X29781Y12636
X28300Y18150
X29500Y18150
X30700Y18150
X31900Y18150
X31900Y16950
X30700Y16950
X28300Y15750
X29500Y15750
X30700Y15750
X31900Y15750
X31900Y14550
X28300Y16950
X29500Y14550
X28300Y14550
X11366Y18796
X18923Y25146
X21082Y26289
X25209Y12001
X24447Y29527
X17907Y26543
X17717Y27940
X27051Y19622
X25654Y19114
X30700Y14550
M30